<svg width="200" height="200" viewBox="0 0 200 200" fill="none" xmlns="http://www.w3.org/2000/svg">
<rect width="200" height="200" rx="100" fill="#EDF1F5"/>
<rect x="31.117" y="49.117" width="137.766" height="101.766" rx="6.88298" fill="white" stroke="#99B0CB" stroke-width="2.23404"/>
<rect x="41.4253" y="105" width="36" height="36" rx="2" fill="#EDF1F5"/>
<rect x="83.1274" y="105" width="36" height="36" rx="2" fill="#EDF1F5"/>
<rect x="124.83" y="105" width="36" height="36" rx="2" fill="#EDF1F5"/>
<path d="M37 72C37 70.8954 37.8954 70 39 70H161C162.105 70 163 70.8954 163 72V80C163 81.1046 162.105 82 161 82H39C37.8954 82 37 81.1046 37 80V72Z" fill="#EDF1F5"/>
<g clip-path="url(#clip0_4495_2622)">
<path d="M47.6598 75.5975C47.6598 77.6477 45.9835 79.3093 43.9151 79.3093C41.8467 79.3093 40.1704 77.6477 40.1704 75.5975C40.1704 73.5473 41.8467 71.8857 43.9151 71.8857C45.9835 71.8857 47.6598 73.5473 47.6598 75.5975Z" fill="white"/>
<path d="M45.6761 75.3391C45.0798 74.9377 44.3168 75.1018 43.9165 75.7045C43.5831 76.2095 43.0783 76.2723 42.8835 76.2723C42.2449 76.2723 41.8105 75.8278 41.6802 75.3682C41.6802 75.3682 41.6779 75.3589 41.6767 75.3554C41.6755 75.3508 41.6744 75.345 41.6732 75.3403C41.6227 75.1483 41.6098 75.0564 41.6098 74.8528C41.6098 73.7532 42.7485 72.5291 44.386 72.5291C46.0236 72.5291 47.0249 73.7951 47.2726 74.499C47.2679 74.4862 47.2632 74.4734 47.2597 74.4618C46.7819 73.0842 45.4648 72.0951 43.9141 72.0951C41.9631 72.0951 40.3807 73.6624 40.3807 75.5975C40.3807 77.3265 41.6391 78.8066 43.3847 78.8066C44.7769 78.8066 45.7125 78.0328 46.141 76.967C46.377 76.384 46.2103 75.6987 45.6761 75.3391Z" fill="#003964"/>
<path d="M47.2924 74.5667C47.0858 73.8802 46.1185 72.5281 44.3835 72.5281C42.7448 72.5281 41.6073 73.7522 41.6073 74.8518C41.6073 75.0554 41.6202 75.1473 41.6707 75.3393C41.6496 75.2555 41.639 75.1718 41.639 75.0891C41.639 73.9442 42.7953 73.1518 43.9832 73.1518C45.5926 73.1518 46.8968 74.4445 46.8968 76.0398C46.8968 77.2894 46.1714 78.3727 45.1172 78.8928C46.4766 78.4053 47.4474 77.1149 47.4474 75.5988C47.4474 75.2404 47.3993 74.9239 47.2924 74.5679" fill="#ED1A3B"/>
<path d="M43.915 79.0998C45.8664 79.0998 47.4484 77.5317 47.4484 75.5975C47.4484 73.6632 45.8664 72.0951 43.915 72.0951C41.9635 72.0951 40.3816 73.6632 40.3816 75.5975C40.3816 77.5317 41.9635 79.0998 43.915 79.0998Z" stroke="#00AEEF" stroke-width="0.0387855" stroke-miterlimit="10"/>
</g>
<rect x="41" y="94" width="72" height="6" rx="1" fill="#EDF1F5"/>
<line x1="31" y1="62.883" x2="169" y2="62.883" stroke="#99B0CB" stroke-width="2.23404"/>
<rect width="53.3333" height="53.3333" rx="26.6667" transform="matrix(1 0 0 -1 141.333 78.6665)" fill="#EB003B"/>
<rect x="165.333" y="40.423" width="5.33333" height="14.9333" fill="white"/>
<rect x="165.333" y="58.5558" width="5.33333" height="5.33333" fill="white"/>
<defs>
<clipPath id="clip0_4495_2622">
<rect width="7.44681" height="7.42857" fill="white" transform="translate(40.1704 71.8857)"/>
</clipPath>
</defs>
</svg>
