<svg width="32" height="32" viewBox="0 0 32 32" fill="none" xmlns="http://www.w3.org/2000/svg">
<path d="M20.7042 21.7208L26.2709 27.2888C26.3377 27.3558 26.417 27.4089 26.5044 27.4451C26.5917 27.4813 26.6853 27.5 26.7799 27.5C26.8744 27.5 26.968 27.4813 27.0554 27.4451C27.1427 27.4089 27.222 27.3558 27.2888 27.2888C27.3558 27.222 27.4089 27.1427 27.4451 27.0554C27.4813 26.9681 27.5 26.8744 27.5 26.7799C27.5 26.6853 27.4813 26.5917 27.4451 26.5044C27.4089 26.4171 27.3558 26.3377 27.2888 26.271L22.1635 21.1472C25.5852 17.198 25.4227 11.1944 21.6718 7.44358C17.7469 3.51881 11.3635 3.51881 7.44151 7.44358C3.5195 11.3683 3.5195 17.7515 7.44151 21.6763C8.37403 22.6131 9.48294 23.3559 10.7042 23.8618C11.9254 24.3676 13.2348 24.6265 14.5566 24.6234C14.7473 24.6234 14.9301 24.5477 15.0649 24.4129C15.1997 24.2781 15.2755 24.0952 15.2755 23.9046C15.2755 23.714 15.1997 23.5311 15.0649 23.3963C14.9301 23.2615 14.7473 23.1858 14.5566 23.1858C13.4236 23.1889 12.3011 22.9672 11.2543 22.5336C10.2074 22.1001 9.257 21.4632 8.45796 20.6598C6.84344 19.0403 5.93685 16.8467 5.93685 14.5599C5.93685 12.2731 6.84344 10.0796 8.45796 8.45999C10.0763 6.8443 12.2698 5.93683 14.5566 5.93683C16.8435 5.93683 19.0369 6.8443 20.6553 8.45999C22.2698 10.0796 23.1764 12.2731 23.1764 14.5599C23.1764 16.8467 22.2698 19.0403 20.6553 20.6598C20.5847 20.7305 20.5295 20.8152 20.4934 20.9084C20.4573 21.0016 20.441 21.1013 20.4456 21.2011C20.4502 21.301 20.4756 21.3987 20.5201 21.4882C20.5646 21.5777 20.6273 21.6569 20.7042 21.7208Z" fill="white" stroke="white"/>
</svg>
