<svg width="17" height="17" viewBox="0 0 17 17" fill="none" xmlns="http://www.w3.org/2000/svg">
<path d="M2.8335 13.4582V7.08317C2.8335 6.85886 2.88379 6.64637 2.98437 6.44567C3.08495 6.24498 3.22355 6.0797 3.40016 5.94984L7.65016 2.76234C7.89808 2.57345 8.18141 2.479 8.50016 2.479C8.81891 2.479 9.10225 2.57345 9.35016 2.76234L13.6002 5.94984C13.7772 6.0797 13.9161 6.24498 14.0167 6.44567C14.1172 6.64637 14.1673 6.85886 14.1668 7.08317V13.4582C14.1668 13.8478 14.028 14.1814 13.7503 14.459C13.4727 14.7367 13.1393 14.8753 12.7502 14.8748H10.6252C10.4245 14.8748 10.2564 14.8068 10.1208 14.6708C9.9853 14.5348 9.9173 14.3667 9.91683 14.1665V10.6248C9.91683 10.4241 9.84883 10.256 9.71283 10.1205C9.57683 9.98498 9.40872 9.91698 9.2085 9.9165H7.79183C7.59113 9.9165 7.42302 9.9845 7.2875 10.1205C7.15197 10.2565 7.08397 10.4246 7.0835 10.6248V14.1665C7.0835 14.3672 7.0155 14.5355 6.8795 14.6715C6.7435 14.8075 6.57538 14.8753 6.37516 14.8748H4.25016C3.86058 14.8748 3.52719 14.7362 3.25 14.459C2.9728 14.1819 2.83397 13.8482 2.8335 13.4582Z" fill="#4C4C4C"/>
</svg>
