<svg width="16" height="16" viewBox="0 0 16 16" fill="none" xmlns="http://www.w3.org/2000/svg">
<path d="M7.99844 2.3999H4.39844C3.29387 2.3999 2.39844 3.29533 2.39844 4.3999V11.5999C2.39844 12.7045 3.29387 13.5999 4.39844 13.5999H11.5984C12.703 13.5999 13.5984 12.7045 13.5984 11.5999V7.9999" stroke="#A0A0A0" stroke-width="1.2"/>
<path d="M7.99844 2.3999H4.39844C3.29387 2.3999 2.39844 3.29533 2.39844 4.3999V11.5999C2.39844 12.7045 3.29387 13.5999 4.39844 13.5999H11.5984C12.703 13.5999 13.5984 12.7045 13.5984 11.5999V7.9999" stroke="black" stroke-opacity="0.2" stroke-width="1.2"/>
<path d="M7.99844 2.3999H4.39844C3.29387 2.3999 2.39844 3.29533 2.39844 4.3999V11.5999C2.39844 12.7045 3.29387 13.5999 4.39844 13.5999H11.5984C12.703 13.5999 13.5984 12.7045 13.5984 11.5999V7.9999" stroke="black" stroke-opacity="0.2" stroke-width="1.2"/>
<path d="M13.5999 2.3999L6.02344 9.97637M13.5999 6.02343V2.3999H9.97638" stroke="#A0A0A0" stroke-width="1.2"/>
<path d="M13.5999 2.3999L6.02344 9.97637M13.5999 6.02343V2.3999H9.97638" stroke="black" stroke-opacity="0.2" stroke-width="1.2"/>
<path d="M13.5999 2.3999L6.02344 9.97637M13.5999 6.02343V2.3999H9.97638" stroke="black" stroke-opacity="0.2" stroke-width="1.2"/>
</svg>
