<svg width="20" height="20" viewBox="0 0 20 20" fill="none" xmlns="http://www.w3.org/2000/svg">
<path d="M10 3H5C3.89543 3 3 3.89543 3 5V15C3 16.1046 3.89543 17 5 17H15C16.1046 17 17 16.1046 17 15V10" stroke="#2D2D2D" stroke-width="1.4"/>
<path d="M10 3H5C3.89543 3 3 3.89543 3 5V15C3 16.1046 3.89543 17 5 17H15C16.1046 17 17 16.1046 17 15V10" stroke="black" stroke-opacity="0.2" stroke-width="1.4"/>
<path d="M10 3H5C3.89543 3 3 3.89543 3 5V15C3 16.1046 3.89543 17 5 17H15C16.1046 17 17 16.1046 17 15V10" stroke="black" stroke-opacity="0.2" stroke-width="1.4"/>
<path d="M17.0018 3L7.53125 12.4706M17.0018 7.52941V3H12.4724" stroke="#2D2D2D" stroke-width="1.4"/>
<path d="M17.0018 3L7.53125 12.4706M17.0018 7.52941V3H12.4724" stroke="black" stroke-opacity="0.2" stroke-width="1.4"/>
<path d="M17.0018 3L7.53125 12.4706M17.0018 7.52941V3H12.4724" stroke="black" stroke-opacity="0.2" stroke-width="1.4"/>
</svg>
