<svg width="182" height="45" viewBox="0 0 182 45" fill="none" xmlns="http://www.w3.org/2000/svg">
<g clip-path="url(#clip0_1111_373)">
<path d="M6.81372 32.6439L6.65453 34.0833C1.5055 32.8252 -1.7991 27.5676 1.06086 22.9033L2.10933 24.3482C1.90073 24.8481 1.57686 25.6832 1.63724 26.6062C1.80741 29.3366 2.75159 30.3694 6.81921 32.6384L6.81372 32.6439Z" fill="white"/>
<path d="M9.01508 32.2984C9.059 33.4136 8.78453 36.8473 7.58784 37.2154C5.76537 37.7757 4.45342 34.9739 4.16797 33.7213C4.71142 34.0894 5.32623 34.3805 5.92457 34.5179C5.92457 34.5179 6.28686 35.298 6.74248 35.2705C7.33533 35.3365 7.32984 33.1279 7.42865 32.0127L9.01508 32.3039V32.2984Z" fill="white"/>
<path d="M9.86746 30.4191L9.83453 31.9409C9.68631 32.0947 6.75499 31.331 6.48052 31.0069C6.27193 30.7652 6.76597 29.4137 6.87027 29.4082C7.86933 30.051 8.72567 30.1499 9.87295 30.4191H9.86746Z" fill="white"/>
<path d="M7.48432 27.892L7.63254 25.9747L5.5356 24.6396L4.58594 25.8263L7.48432 27.892Z" fill="white"/>
<path d="M5.49693 27.0234L6.74302 27.9574L5.70553 31.3471L4.23438 30.3857C4.52531 29.221 4.88212 28.0618 5.50242 27.0234H5.49693Z" fill="white"/>
<path d="M9.72936 26.2657C9.50979 24.6396 8.65894 23.5573 7.16583 22.9914C3.24093 21.2718 0.803649 27.359 3.85574 29.595L4.35527 28.0018C4.0808 27.5458 3.33974 25.8537 4.78893 24.6286C5.24455 24.244 5.46412 24.2001 5.788 24.1946C6.27655 24.1946 6.66081 24.288 7.42383 24.8923C7.54459 24.9912 7.66536 25.0846 7.70927 25.2109C7.95081 25.4801 8.02766 25.8372 8.06608 26.2493C8.13196 26.936 8.13196 28.4523 7.79161 29.194L9.35609 29.3972C9.48783 28.3589 9.80621 27.2711 9.72387 26.2657H9.72936Z" fill="white"/>
<path d="M42.0391 32.5397C42.0391 32.1167 42.1983 30.9135 42.1708 30.4411C42.1708 30.3861 42.7582 29.8862 43.4279 28.6391C44.8661 25.9526 43.6145 22.898 42.1104 21.5301L43.093 20.25C46.6007 24.0078 46.3757 29.3093 42.0445 32.5397H42.0391Z" fill="white"/>
<path d="M37.4836 31.6219L36.2266 30.4517C39.4269 29.4903 41.5897 28.5508 41.6007 26.2105L42.8797 24.9854C43.8074 28.1113 41.0792 30.8692 37.4836 31.6219Z" fill="white"/>
<path d="M37.7493 24.4807C37.2662 24.9587 37.2936 25.6234 37.4144 26.2662L35.9213 26.1398C35.3559 22.459 39.3631 21.9645 41.3228 22.8875C40.7904 23.338 40.214 24.0797 40.1536 24.0577C39.3631 23.8324 38.6331 23.5962 37.7493 24.4752V24.4807Z" fill="white"/>
<path d="M39.7239 31.6221L39.5537 33.4405L34.8878 35.1107L34.8164 33.5339C37.3141 32.8197 36.1174 32.9076 39.7239 31.6221Z" fill="white"/>
<path d="M42.396 22.6338L43.2633 23.8864L40.6559 26.474L39.9258 25.084L42.396 22.6338Z" fill="white"/>
<path d="M39.3776 28.6614L37.8516 25.453L39.0537 24.585C39.2459 24.8432 40.448 27.0682 40.7884 27.5846L39.3776 28.6669V28.6614Z" fill="white"/>
<path d="M41.6393 30.1387C41.8259 31.7923 41.244 35.8468 39.9266 36.6269C38.6091 37.407 37.5387 36.484 37.0117 35.0282C37.3411 34.9403 37.7144 34.7425 38.4884 34.5392C38.4884 34.5392 39.0922 35.5226 39.5259 34.759C40.1352 33.4295 40.2614 32.3911 40.2175 31.0397L41.6393 30.1387Z" fill="white"/>
<path d="M9.90817 36.2594C9.93562 36.9022 10.0289 37.2263 10.018 37.8471C10.018 37.9515 8.706 38.4899 10.265 39.5118C11.2421 40.16 12.8834 39.9183 13.9209 39.5832L15.0517 40.7479C13.4378 41.2258 12.4223 41.6324 10.1058 40.9841C7.32268 40.204 6.92745 37.0945 9.90817 36.2539V36.2594Z" fill="white"/>
<path d="M23.1805 37.4672L22.1211 36.5058L24.0424 34.2588C24.3004 34.4071 24.7944 34.9345 24.9975 35.2422C25.0854 35.374 23.3946 37.2639 23.1805 37.4672Z" fill="white"/>
<path d="M34.2791 31.4905L35.6185 32.8584L37.1226 32.1992L34.7018 29.8094C34.0321 29.1556 32.9562 29.1666 32.3029 29.8423L30.2773 32.6826L31.9461 33.0123L32.7146 31.6992C32.7421 31.6718 32.7915 31.6883 32.7915 31.7322L32.6872 39.0006L34.2681 39.3247V31.496L34.2791 31.4905Z" fill="white"/>
<path d="M20.531 38.4351C19.6142 39.4569 19.0433 40.248 18.2913 40.3579C17.4404 40.4843 16.4469 39.2262 15.7662 38.4131L13.3893 34.7597L14.7342 33.7653C15.2063 33.4137 15.4313 32.8149 15.2721 32.205C15.2008 31.9249 15.0306 31.6776 14.811 31.4854L12.6976 29.6229L11.7315 30.7217L11.7425 29.5955L10.2109 29.4746C10.2109 29.4746 10.2219 30.0624 10.2219 30.0844L10.4195 37.4132C10.4195 37.4132 10.6062 38.7867 11.3363 39.4459L12.9282 39.3415C12.9282 39.3415 12.0938 38.5889 11.9181 37.4352L11.726 30.8645C11.726 30.8261 11.7699 30.8041 11.7974 30.8316L13.7845 32.5841L12.4506 33.5675C11.8358 34.018 11.6766 34.8696 12.0883 35.5178L14.4268 39.1987C15.5246 40.8084 18.703 44.0388 21.5794 39.3031C21.1622 39.0174 20.6078 38.3362 20.5255 38.4296L20.531 38.4351Z" fill="white"/>
<path d="M30.2018 33.0122C30.9209 33.2594 31.1953 33.2594 32.4414 33.4792V35.3031C30.5311 34.968 29.06 35.1163 29.2796 34.7153C29.565 34.1934 30.0536 32.9627 30.2073 33.0122H30.2018Z" fill="white"/>
<path d="M15.073 36.462L14.1562 34.9567L16.7857 34.0557C16.9503 34.3029 17.4499 34.9072 17.5981 35.2423C17.6969 35.4621 15.2431 36.6433 15.0675 36.4565L15.073 36.462Z" fill="white"/>
<path d="M24.4375 41.1873C24.5308 41.2587 24.7943 41.6048 24.9096 41.7092C25.4475 42.2201 26.1282 43.3793 27.6158 43.8573C31.0302 44.9451 32.8253 44.0221 35.1198 41.5554L33.5608 41.3631C32.935 42.0938 28.7906 45.4285 25.3597 39.9512L24.4375 41.1928V41.1873Z" fill="white"/>
<path d="M32.9539 41.22L31.3675 40.6651C30.8186 40.83 30.2696 40.786 29.9952 40.7256C29.4627 40.6047 29.1278 40.5058 28.3538 39.863C28.0739 39.6103 27.997 39.2258 28.2111 39.0005C28.266 38.9419 28.3191 38.8888 28.3703 38.8412L27.3164 37.7754C26.8882 38.116 26.718 38.4182 26.6412 38.8906C26.4271 40.2037 27.2121 40.8135 28.0355 41.3574C28.1178 41.4123 28.1947 41.4672 28.2825 41.5112C30.3026 42.4836 31.7518 42.1869 32.943 41.2145L32.9539 41.22Z" fill="white"/>
<path d="M32.1902 37.8085C31.5479 37.8854 31.526 37.7975 30.4611 37.8964L29.3906 36.5559C30.9661 36.2647 32.3659 35.9296 32.3439 36.1658C32.2835 36.8306 32.4427 37.781 32.1902 37.8085Z" fill="white"/>
<path d="M21.1445 44.1479C23.2799 45.1698 24.8773 45.3675 27.2048 44.2138C27.2377 44.1973 26.9688 44.071 26.5241 43.8293C25.816 43.4502 25.8379 43.3128 25.7721 43.3403C24.4821 43.9117 24.0265 43.8293 22.5498 43.3788L22.2863 43.5161C22.0173 43.6809 21.9076 43.7633 21.5837 43.9281L21.1445 44.1424V44.1479Z" fill="white"/>
<path d="M19.6742 37.0668L20.6843 35.7812L20.7995 35.6329L20.9038 35.4955L22.3091 33.71C22.8086 33.0728 22.7537 32.1663 22.1719 31.6004L20.1792 29.6556L20.1628 29.6391C19.9432 29.4523 19.6248 29.4523 19.4107 29.6391L17.5608 31.3587C16.8527 32.0125 16.7539 33.1002 17.3357 33.8694L18.752 35.7647C18.752 35.7647 18.763 35.8032 18.752 35.8197L16.3477 38.4512L17.2534 39.5555C17.4236 39.3797 18.5214 38.2589 18.5214 38.2589C18.5214 38.2589 19.6797 37.0833 19.6797 37.0778L19.6742 37.0668ZM18.5324 32.9574C18.4171 32.8036 18.4336 32.5838 18.5763 32.4465L19.5589 31.529C19.6742 31.4191 19.8554 31.4246 19.9706 31.529L20.8489 32.386C21.0356 32.5673 21.0575 32.864 20.8929 33.0728L19.7291 34.5561L18.5324 32.9519V32.9574Z" fill="white"/>
<path d="M23.6305 38.4401L21.056 36.0723L20.0898 37.2864L22.7687 39.7916L23.6305 38.4401Z" fill="white"/>
<path d="M37.0434 36.83C36.231 36.6102 34.7269 36.2971 34.7269 36.4454C34.7269 36.9893 34.7105 37.5057 34.7928 37.8958C34.8532 38.1925 34.9355 37.698 36.9995 38.3408C37.0983 38.3738 37.7955 38.6704 37.2575 39.3242C36.3133 40.1098 33.909 39.7857 32.877 39.456C32.2183 39.2638 32.361 39.3791 31.2247 38.7968C30.6154 38.4836 30.2037 38.2419 29.7755 37.7035L27.975 35.7038L29.4352 33.4623C29.8798 32.781 29.7371 31.8855 29.1058 31.3691L26.954 29.6166C26.954 29.6166 26.932 29.6001 26.9155 29.5891C26.685 29.4298 26.3721 29.4573 26.169 29.6605L24.5496 31.4625C23.8635 32.2262 23.8635 33.3799 24.5496 34.138L25.9055 35.6433C26.0098 35.7642 26.2074 35.7917 25.9384 36.0718L22.8589 40.1757C19.2908 45.1696 15.2616 42.0931 14.6413 41.3624L13 41.6206C14.9872 44.0928 18.2423 44.7521 20.4655 43.8731C21.7775 43.3567 22.7711 42.4447 23.309 41.9338C23.4243 41.8239 23.7811 41.4118 23.8744 41.3404L26.8716 37.3849C27.1735 36.9783 27.0967 36.8684 27.4316 37.3409L28.2385 38.2419C28.6502 38.6979 29.7481 39.5439 30.2805 39.8516C30.5166 39.9889 30.9557 40.2417 31.9603 40.5548C33.6949 40.9998 34.6885 41.5272 36.9721 40.7801C39.3051 40.0219 40.0242 37.6705 37.0434 36.8245V36.83ZM26.9375 34.5446L25.5871 33.0392C25.4664 32.9019 25.4664 32.6931 25.5871 32.5558L26.4709 31.5724C26.5917 31.435 26.8003 31.4241 26.9375 31.5339L27.9805 32.38C28.1177 32.4899 28.1452 32.6821 28.0518 32.8305L26.9375 34.5391V34.5446Z" fill="white"/>
<path d="M21.7284 0.74702L20.3121 1.51616C16.0578 -0.0001412 10.4806 3.55986 9.25102 6.76277L7.73047 6.59246C9.73958 2.13696 15.9865 -1.65928 21.7284 0.74702Z" fill="white"/>
<path d="M33.256 2.69211L31.944 3.14261C27.7062 0.362725 25.4556 0.791244 20.7786 3.31841L19.8125 2.48335C25.1701 -0.900857 28.4692 -0.236103 31.4554 1.43402C32.6357 2.09328 32.5863 2.1702 33.2505 2.69211H33.256Z" fill="white"/>
<path d="M37.4076 9.07065C36.8752 7.85651 36.6227 7.61479 36.458 7.34559C35.695 6.09849 34.6794 5.2854 34.125 4.78546L35.2009 4.29102C36.2659 5.20849 36.8971 5.66447 37.6656 6.91707C38.0938 7.60929 38.2695 7.98287 38.2695 7.98287C37.8358 8.48831 37.4076 9.07065 37.4076 9.07065Z" fill="white"/>
<path d="M2.62417 24.2281C1.3671 23.0524 0.675443 21.1845 0.318634 19.4869C-0.329112 16.3774 1.50983 13.5206 3.91966 11.79L3.94162 13.4107C3.10723 13.9107 2.03681 15.3226 1.70195 16.4323C1.02127 18.6793 2.03132 21.2944 3.57383 22.9315L2.61868 24.2226L2.62417 24.2281Z" fill="white"/>
<path d="M9.21711 10.0925L7.70754 10.1804C7.58128 10.1804 6.98843 8.86735 6.42303 9.49365C6.06073 9.8947 5.68196 11.4604 5.90702 12.8284L4.50175 13.614C4.24924 13.3174 4.37 11.9659 4.46881 11.2132C4.74877 9.08161 6.42303 5.37876 9.21711 10.0925Z" fill="white"/>
<path d="M10.4337 13.1528L10.0824 14.2681C9.61583 14.3395 6.16851 13.6638 4.34055 16.5151C3.96178 17.1084 3.95629 18.2401 3.98923 18.1797C3.88493 18.361 2.94076 19.2675 2.72119 19.5531C2.44123 18.795 2.54553 17.8061 2.60042 17.4435C3.19327 13.2023 8.63324 12.4936 10.4283 13.1528H10.4337Z" fill="white"/>
<path d="M10.0162 17.4102C10.5981 20.4977 7.31543 23.0578 4.66406 21.536C4.97696 21.2503 5.76194 20.3658 5.90466 20.2175C6.01445 20.0966 6.48104 20.679 7.64479 20.0197C8.57249 19.4978 8.59994 18.8331 8.6713 18.031C8.67679 17.9431 9.25866 17.7727 10.0162 17.4157V17.4102Z" fill="white"/>
<path d="M5.16678 17.7672L5.90785 19.3275L3.48704 22.0139L2.57031 20.5691C3.36627 19.6736 4.18968 18.5418 5.16678 17.7617V17.7672Z" fill="white"/>
<path d="M6.63729 15.4659L8.15784 18.6304C8.00414 19.0974 7.29601 19.5478 6.87882 19.6138C6.62631 19.6522 5.14418 16.6196 5.31435 16.4548C5.48452 16.29 6.34635 15.4549 6.63729 15.4659Z" fill="white"/>
<path d="M11.4282 10.7959C9.51239 10.5212 6.78966 10.7245 6.42188 11.0981V12.4331C6.86102 12.3012 11.2141 11.6474 11.4282 13.1692" fill="white"/>
<path d="M31.809 8.42148C31.809 8.42148 31.0515 6.11957 29.4102 7.52049C29.4102 7.52049 30.1018 8.98735 31.809 8.42148Z" fill="white"/>
<path d="M10.1094 6.83982C10.1094 6.83982 11.3939 8.76815 12.5521 7.05957C12.5521 7.05957 11.5421 5.87839 10.1094 6.83982Z" fill="white"/>
<path d="M14.5282 5.70274C14.5282 5.70274 17.3223 4.91712 15.7359 2.87891C15.7359 2.87891 13.9409 3.62607 14.5282 5.70274Z" fill="white"/>
<path d="M18.9023 8.53215C18.9023 8.53215 21.4384 8.89474 20.884 6.68072C20.884 6.68072 19.1713 6.64227 18.9023 8.53215Z" fill="white"/>
<path d="M32.4717 7.41113C32.4717 7.41113 33.6354 5.88934 31.9941 5.44434C31.9941 5.44434 31.3464 6.5486 32.4717 7.41113Z" fill="white"/>
<path d="M28.86 1.93359C28.86 1.93359 26.6313 2.1918 27.592 3.94434C27.592 3.94434 29.0521 3.59273 28.86 1.93359Z" fill="white"/>
<path d="M14.1098 8.84496C14.1098 8.84496 12.3532 8.0923 12.3203 9.7899C12.3203 9.7899 13.5499 10.1525 14.1098 8.84496Z" fill="white"/>
<path d="M34.8488 11.1689C34.8488 11.1689 33.6796 13.1687 35.7216 13.4654C35.7216 13.4654 36.3365 12.0425 34.8488 11.1689Z" fill="white"/>
<path d="M24.7429 4.30656C24.7429 4.30656 25.0009 2.10902 23.1016 2.63094C23.1016 2.63094 23.1016 4.11427 24.7429 4.30656Z" fill="white"/>
<path d="M44.7168 21.58C44.4917 21.3163 43.7616 20.4263 43.7122 20.2999C43.6902 20.245 44.069 19.2781 44.1074 18.8386C44.4148 15.6192 41.7305 12.5701 39.0078 11.4109L39.4909 10.1748C44.0251 12.1471 47.2034 16.6026 44.7168 21.58Z" fill="white"/>
<path d="M38.4102 21.6292C38.5693 21.1403 38.9646 20.6239 39.1512 20.3766C39.2171 20.2887 40.2985 20.904 41.2372 19.3493C42.0167 18.0582 41.3744 17.2067 41.3195 16.8935C41.3085 16.8331 41.6269 15.5036 41.7038 14.9707C44.6351 17.7671 42.4174 23.0576 38.4102 21.6292Z" fill="white"/>
<path d="M36.2568 14.5641C36.6136 14.7234 37.3272 15.0036 37.6675 15.1739C37.5248 15.9485 37.1296 16.4814 37.0033 17.4648C36.9374 17.9813 37.1241 18.4372 37.1241 18.4372C36.9759 18.5856 36.2952 19.6239 36.1964 19.7503C34.4562 18.1351 36.2348 14.674 36.2568 14.5586V14.5641Z" fill="white"/>
<path d="M40.5843 17.4106L39.1406 16.4986C39.6731 15.3669 39.9366 13.8561 40.0519 12.6035C40.4306 12.9002 41.1003 13.4276 41.3528 13.7243C41.5065 13.9056 40.771 16.5591 40.5843 17.4051V17.4106Z" fill="white"/>
<path d="M39.4287 13.5538C39.3518 13.9769 39.2859 14.2406 39.1762 14.6801C39.1432 14.8009 39.0389 15.2349 39.0389 15.2349C38.6547 15.0482 38.243 14.7735 37.7764 14.6032C37.1506 14.3724 37.0133 14.268 36.3711 14.0867L36.7114 12.5869L39.4287 13.5538Z" fill="white"/>
<path d="M41.0275 18.2019C40.9781 18.7073 40.6542 19.2402 40.2809 19.6303C40.1272 19.5094 40.1162 19.5644 39.4301 19.037C38.8592 18.5975 38.2498 18.2294 37.668 17.8118L37.9699 16.29L41.0275 18.2019Z" fill="white"/>
<path d="M41.8792 10.8452L40.5617 10.1365C40.5617 10.1365 40.4574 8.64215 39.5791 9.22999C39.0467 9.5816 38.388 11.1748 38.1739 12.5428L36.8125 12.0978C36.8674 11.5099 37.2132 10.6694 37.4493 9.94419C37.7786 8.92783 41.0228 5.13709 41.8847 10.8452H41.8792Z" fill="white"/>
<path d="M39.2478 19.5807C39.2478 19.6576 38.6605 19.9378 38.1829 20.8278C38.0951 20.9926 37.9359 21.3387 38.0127 21.9595L36.558 22.4595C36.0969 21.0805 36.7063 19.5532 37.7767 18.5918" fill="white"/>
<path d="M25.6792 25.2328C24.1587 22.6452 24.3673 21.4146 24.5045 21.9145C24.7515 22.8265 25.4871 24.3977 26.9582 25.5954C26.9582 25.5954 26.9747 25.6064 26.9802 25.6119C27.2766 25.8481 27.606 26.0734 27.9628 26.2711C31.0533 28.205 33.282 28.1336 38.5079 28.4577L38.4255 28.2654L37.8546 26.8755C33.2875 26.3481 31.2345 25.7273 30.5208 24.9361C30.6087 24.8922 30.702 24.8428 30.8063 24.7933C30.8612 24.7658 30.9216 24.7384 30.9874 24.7164C31.0423 24.6999 31.0972 24.6779 31.1686 24.6505C31.2345 24.623 31.3003 24.5955 31.3717 24.5681C31.6517 24.4692 31.9755 24.3593 32.3433 24.2329C32.9142 24.0681 33.5126 23.9637 34.056 24.0187C34.2866 24.0407 35.0825 24.2604 35.3186 24.3868L36.1035 22.9034C34.5116 22.2881 34.0231 22.0244 32.1402 22.365C29.917 22.7716 28.9015 22.6397 28.5557 22.5573C28.2208 22.4529 27.8914 22.3266 27.5895 22.1618C27.2492 21.9805 26.9637 21.7442 26.7881 21.4476C26.7551 21.3981 26.6069 21.1014 26.5356 20.8982L25.5914 16.3822C25.5694 16.2284 25.542 16.0856 25.5091 15.9537C25.0534 13.7892 25.2456 13.3991 26.2556 13.2123C27.8036 12.9266 29.9225 13.1354 31.2948 13.921C32.5684 14.6517 33.2765 15.278 34.3634 16.0416C35.3954 16.7668 35.4119 16.9261 36.4219 17.2997L36.8007 15.701C36.356 15.4758 36.5207 15.6131 35.9279 15.1846C35.2362 14.6847 34.5171 13.9814 34.5171 13.9814C32.3817 11.9267 32.1018 12.2124 32.3214 11.6356C32.8099 10.361 36.356 10.9543 36.5811 10.9488L37.0971 9.55341C36.6854 9.44903 33.2381 9.46551 33.2491 9.37761C33.3424 8.8502 35.7083 7.32841 35.7083 7.32841C35.6095 7.02075 35.324 6.67464 34.9837 6.24063C33.5949 6.64717 32.261 8.3173 31.7724 9.13038C31.3882 9.76767 31.1357 10.2731 30.3671 10.6082C29.8347 10.839 28.3361 10.9159 28.0945 10.9104C28.0287 10.9104 27.1778 10.8829 26.8045 10.7181C27.2766 9.77316 28.1385 8.47662 28.3141 8.18544C29.2693 6.58124 30.0872 6.02637 30.6032 5.71322C31.6077 5.11439 34.2042 4.0376 34.9837 3.95519L33.798 3.08167C31.4925 3.77939 29.8127 4.79025 29.8127 4.79025C28.918 5.11988 28.4568 3.99365 28.402 4.00464C28.0506 4.07056 27.326 4.2189 27.326 4.2189C28.6215 6.09779 28.4404 5.63081 27.6719 6.50982L25.4432 8.69088C24.3398 7.72946 25.8714 4.98803 26.7936 3.70797L26.1019 2.89488C24.5319 4.35075 24.4661 5.85056 24.241 5.80112C20.9529 5.02649 18.2796 2.35649 18.1917 2.39494C18.027 2.47186 17.1048 2.62568 17.1048 2.62568C18.587 4.36174 19.6354 5.20229 22.5777 7.04822C23.3517 7.53168 23.1376 10.5423 21.7873 10.9543C21.134 11.1521 20.5137 11.0752 20.0636 10.9763C19.6464 10.8609 19.2512 10.6796 19.092 10.372C18.1478 9.02051 18.5101 4.93309 18.5705 4.86167L17.555 4.09254L17.0719 8.16896C17.0115 9.41057 15.5294 7.7789 15.5294 7.7789C15.5294 7.7789 12.4334 4.35624 12.3126 4.43315C11.868 4.71883 11.5661 5.08143 11.4453 5.1913C11.4453 5.1913 14.9859 9.55341 15.0628 9.6523C15.6886 10.4214 15.491 10.6851 15.491 10.6851C15.491 10.6851 15.3098 11.3114 13.8606 11.9762C13.7838 12.0092 13.7069 12.0476 13.6301 12.0806C13.5038 12.13 13.2733 12.2454 13.1909 12.2948C13.0427 12.3717 12.9274 12.4432 12.8176 12.5201C13.0921 10.2566 9.71614 7.31742 9.27699 7.28995C8.2889 7.23501 8.24499 7.19655 7.70703 7.16908C8.45907 7.86131 12.631 11.6521 11.0446 14.1627C10.8305 14.4539 10.4682 14.8 10.0126 15.0088C9.15622 15.4043 8.55788 15.4373 7.70703 15.9372L8.2889 17.4865L10.4901 16.6075C10.8305 16.4647 11.6484 15.9702 11.9942 15.7614C14.0198 14.5253 14.157 13.3661 17.0115 12.7728C18.06 12.553 19.5366 13.1354 19.7287 13.899C19.8879 14.5418 19.9538 15.2066 19.866 15.8658C19.7617 16.6569 19.597 17.7392 19.361 18.5523C19.3445 18.6127 19.3225 18.6677 19.3061 18.7281C19.3061 18.7281 19.3061 18.7391 19.3061 18.7446L19.0755 19.6291C19.0042 19.8653 18.9383 20.0906 18.8779 20.3103C18.8724 20.2774 18.5979 21.2223 18.06 22.0354C18.049 22.0464 16.8304 23.5023 12.0985 22.5024C10.8085 22.2277 9.51852 21.9914 8.25048 22.81L9.87533 24.3428C10.1114 24.2219 10.9073 24.2055 11.1379 24.189C12.1095 24.1066 13.1415 24.4802 14.0308 24.7713C14.1241 24.8318 14.2174 24.8922 14.3107 24.9416C12.8341 25.7492 10.9512 27.2655 10.2157 28.3258L12.2248 28.65C14.8871 27.1776 17.286 25.7877 18.285 24.645C19.8605 23.321 20.5796 21.0135 20.4479 21.8761C19.855 25.8701 13.8771 29.6169 13.8771 29.6169C14.5358 30.1718 15.6941 31.0563 15.8093 30.9849C19.855 28.5346 19.3006 27.7545 20.5796 28.7104L23.2474 30.7102C23.4066 30.7816 25.3828 28.8972 26.1513 28.4742C26.2446 28.4247 26.4477 28.2819 26.5905 28.2984C26.9253 28.3094 27.0131 28.3973 27.7213 28.9412L30.3068 31.1277C30.5702 30.8805 31.7724 29.3697 31.5199 29.2873C29.0881 28.4797 26.2062 25.969 25.6902 25.2548L25.6792 25.2328ZM17.8349 22.3156C17.9282 22.1782 18.0051 22.0739 18.049 22.0189C17.9831 22.1233 17.9063 22.2222 17.8349 22.3156Z" fill="white"/>
<path d="M54.4938 13.3818H63.1066C65.8897 13.3818 67.8165 14.1125 69.0406 15.3376C70.1055 16.4034 70.6545 17.7879 70.6545 19.5844V19.6338C70.6545 22.4467 69.1723 24.2981 66.9052 25.2595L71.2528 31.6159H65.4506L61.7782 26.0946H59.5385V31.6159H54.4883V13.3818H54.4938ZM62.9035 22.1335C64.5942 22.1335 65.6097 21.2985 65.6097 19.9689V19.9195C65.6097 18.4636 64.5448 17.733 62.876 17.733H59.544V22.1335H62.9035Z" fill="white"/>
<path d="M71.957 22.5513V22.5019C71.957 17.2663 76.1729 13.0195 81.794 13.0195C87.4151 13.0195 91.5815 17.2113 91.5815 22.447V22.4964C91.5815 27.732 87.3657 31.9788 81.7446 31.9788C76.1235 31.9788 71.957 27.787 71.957 22.5513ZM86.405 22.5513V22.5019C86.405 19.8429 84.5332 17.5794 81.7446 17.5794C78.956 17.5794 77.1115 19.8209 77.1115 22.4524V22.5019C77.1115 25.1334 79.0109 27.4244 81.794 27.4244C84.5771 27.4244 86.3996 25.1829 86.3996 22.5513H86.405Z" fill="white"/>
<path d="M92.9336 22.5513V22.5019C92.9336 17.2663 97.1494 13.0195 102.771 13.0195C108.392 13.0195 112.558 17.2113 112.558 22.447V22.4964C112.558 27.732 108.342 31.9788 102.721 31.9788C97.1 31.9788 92.9336 27.787 92.9336 22.5513ZM107.382 22.5513V22.5019C107.382 19.8429 105.51 17.5794 102.721 17.5794C99.9325 17.5794 98.0881 19.8209 98.0881 22.4524V22.5019C98.0881 25.1334 99.9874 27.4244 102.771 27.4244C105.554 27.4244 107.376 25.1829 107.376 22.5513H107.382Z" fill="white"/>
<path d="M118.182 17.8099H112.742V13.3818H128.7V17.8099H123.232V31.6159H118.182V17.8099Z" fill="white"/>
<path d="M130.258 13.3818H135.308V27.1878H144.129V31.6159H130.258V13.3818Z" fill="white"/>
<path d="M151.963 13.25H156.832L164.589 31.6159H159.176L157.875 28.3361H150.822L149.521 31.6159H144.234L151.963 13.25ZM156.388 24.397L154.357 19.2383L152.298 24.397H156.382H156.388Z" fill="white"/>
<path d="M165.707 13.3818H175.05C177.339 13.3818 178.953 13.9532 180.023 14.997C180.753 15.7497 181.193 16.7166 181.193 17.9637V18.0131C181.193 20.1228 179.996 21.3754 178.382 22.0786C180.594 22.8093 181.999 24.0564 181.999 26.5341V26.5835C181.999 29.7095 179.447 31.6104 175.105 31.6104H165.707V13.3818ZM176.225 19.0075C176.225 17.9912 175.418 17.4473 173.936 17.4473H170.631V20.6502H173.804C175.341 20.6502 176.225 20.1283 176.225 19.0625V19.013V19.0075ZM174.479 24.1937H170.626V27.5559H174.528C176.087 27.5559 176.949 26.9571 176.949 25.8913V25.8419C176.949 24.853 176.17 24.1992 174.479 24.1992V24.1937Z" fill="white"/>
<path d="M170.732 8.66309H167.598V11.8001H170.732V8.66309Z" fill="white"/>
<path d="M176.951 8.66309H173.816V11.8001H176.951V8.66309Z" fill="white"/>
<path d="M170.65 33.1934H167.516V36.3303H170.65V33.1934Z" fill="white"/>
<path d="M176.869 33.1934H173.734V36.3303H176.869V33.1934Z" fill="white"/>
</g>
<defs>
<clipPath id="clip0_1111_373">
<rect width="182" height="45" fill="white"/>
</clipPath>
</defs>
</svg>
