<svg width="168" height="37" viewBox="0 0 168 37" fill="none" xmlns="http://www.w3.org/2000/svg">
<g clip-path="url(#clip0_1112_1356)">
<path d="M0 6.30469H11.348C15.015 6.30469 17.5536 7.28185 19.1665 8.92026C20.5697 10.3456 21.2929 12.1971 21.2929 14.5996V14.6657C21.2929 18.4274 19.3401 20.9034 16.353 22.1891L22.0813 30.6897H14.4364L9.59773 23.3059H6.64681V30.6897H0V6.30469ZM11.0804 18.0086C13.3081 18.0086 14.6461 16.8919 14.6461 15.1139V15.0477C14.6461 13.1008 13.243 12.1236 11.0443 12.1236H6.65404V18.0086H11.0804Z" fill="#1A9058"/>
<path d="M23.0078 18.5666V18.5004C23.0078 11.4986 28.5625 5.81934 35.9687 5.81934C43.375 5.81934 48.8645 11.4252 48.8645 18.427V18.4931C48.8645 25.4949 43.3099 31.1742 35.9036 31.1742C28.4974 31.1742 23.0078 25.5683 23.0078 18.5666ZM42.0441 18.5666V18.5004C42.0441 14.9444 39.5778 11.9174 35.9036 11.9174C32.2294 11.9174 29.7993 14.915 29.7993 18.4343V18.5004C29.7993 22.0197 32.3018 25.0834 35.9687 25.0834C39.6357 25.0834 42.0369 22.0858 42.0369 18.5666H42.0441Z" fill="#1A9058"/>
<path d="M50.6484 18.5666V18.5004C50.6484 11.4986 56.2031 5.81934 63.6093 5.81934C71.0156 5.81934 76.5052 11.4252 76.5052 18.427V18.4931C76.5052 25.4949 70.9505 31.1742 63.5443 31.1742C56.138 31.1742 50.6484 25.5683 50.6484 18.5666ZM69.6848 18.5666V18.5004C69.6848 14.9444 67.2184 11.9174 63.5443 11.9174C59.8701 11.9174 57.4399 14.915 57.4399 18.4343V18.5004C57.4399 22.0197 59.9424 25.0834 63.6093 25.0834C67.2763 25.0834 69.6775 22.0858 69.6775 18.5666H69.6848Z" fill="#1A9058"/>
<path d="M83.9136 12.2333H76.7461V6.31152H97.7714V12.2333H90.5677V30.6966H83.9136V12.2333Z" fill="#1A9058"/>
<path d="M99.8242 6.30371H106.478V24.767H118.101V30.6887H99.8242V6.30371Z" fill="#1A9058"/>
<path d="M128.422 6.13477H134.837L145.057 30.6961H137.926L136.211 26.3099H126.917L125.203 30.6961H118.238L128.422 6.13477ZM134.251 21.042L131.575 14.1431L128.863 21.042H134.244H134.251Z" fill="#1A9058"/>
<path d="M146.531 6.30371H158.841C161.857 6.30371 163.984 7.06781 165.394 8.46376C166.356 9.47031 166.935 10.7634 166.935 12.4312V12.4973C166.935 15.3186 165.358 16.9937 163.231 17.9342C166.146 18.9113 167.998 20.5791 167.998 23.8927V23.9588C167.998 28.1393 164.635 30.6814 158.914 30.6814H146.531V6.30371ZM160.389 13.8271C160.389 12.4679 159.326 11.7406 157.373 11.7406H153.019V16.0239H157.199C159.225 16.0239 160.389 15.326 160.389 13.9006V13.8345V13.8271ZM158.089 20.7628H153.012V25.2592H158.154C160.208 25.2592 161.344 24.4584 161.344 23.0331V22.9669C161.344 21.6445 160.317 20.7702 158.089 20.7702V20.7628Z" fill="#1A9058"/>
<path d="M153.149 0H149.02V4.19519H153.149V0Z" fill="#1A9058"/>
<path d="M161.345 0H157.215V4.19519H161.345V0Z" fill="#1A9058"/>
<path d="M153.04 32.8047H148.91V36.9999H153.04V32.8047Z" fill="#1A9058"/>
<path d="M161.235 32.8047H157.105V36.9999H161.235V32.8047Z" fill="#1A9058"/>
</g>
<defs>
<clipPath id="clip0_1112_1356">
<rect width="168" height="37" fill="white"/>
</clipPath>
</defs>
</svg>
